<svg viewBox="0 0 330 200" xmlns="http://www.w3.org/2000/svg"><g><g><g><g><g><line x1="51.53200149536133" y1="177.8779993057251" x2="46.53200149536133" y2="177.8779993057251" style="visibility: inherit;" fill="rgb(0, 0, 0)" stroke="rgb(204, 204, 204)" stroke-width="1px"></line><line x1="51.53200149536133" y1="164.1950762822078" x2="46.53200149536133" y2="164.1950762822078" style="visibility: inherit;" fill="rgb(0, 0, 0)" stroke="rgb(204, 204, 204)" stroke-width="1px"></line><line x1="51.53200149536133" y1="150.51215325869046" x2="46.53200149536133" y2="150.51215325869046" style="visibility: inherit;" fill="rgb(0, 0, 0)" stroke="rgb(204, 204, 204)" stroke-width="1px"></line><line x1="51.53200149536133" y1="136.82923023517313" x2="46.53200149536133" y2="136.82923023517313" style="visibility: inherit;" fill="rgb(0, 0, 0)" stroke="rgb(204, 204, 204)" stroke-width="1px"></line><line x1="51.53200149536133" y1="123.14630721165584" x2="46.53200149536133" y2="123.14630721165584" style="visibility: inherit;" fill="rgb(0, 0, 0)" stroke="rgb(204, 204, 204)" stroke-width="1px"></line><line x1="51.53200149536133" y1="109.46338418813853" x2="46.53200149536133" y2="109.46338418813853" style="visibility: inherit;" fill="rgb(0, 0, 0)" stroke="rgb(204, 204, 204)" stroke-width="1px"></line><line x1="51.53200149536133" y1="95.78046116462122" x2="46.53200149536133" y2="95.78046116462122" style="visibility: inherit;" fill="rgb(0, 0, 0)" stroke="rgb(204, 204, 204)" stroke-width="1px"></line><line x1="51.53200149536133" y1="82.0975381411039" x2="46.53200149536133" y2="82.0975381411039" style="visibility: inherit;" fill="rgb(0, 0, 0)" stroke="rgb(204, 204, 204)" stroke-width="1px"></line><line x1="51.53200149536133" y1="68.41461511758659" x2="46.53200149536133" y2="68.41461511758659" style="visibility: inherit;" fill="rgb(0, 0, 0)" stroke="rgb(204, 204, 204)" stroke-width="1px"></line><line x1="51.53200149536133" y1="54.73169209406927" x2="46.53200149536133" y2="54.73169209406927" style="visibility: inherit;" fill="rgb(0, 0, 0)" stroke="rgb(204, 204, 204)" stroke-width="1px"></line><line x1="51.53200149536133" y1="41.048769070551955" x2="46.53200149536133" y2="41.048769070551955" style="visibility: inherit;" fill="rgb(0, 0, 0)" stroke="rgb(204, 204, 204)" stroke-width="1px"></line><line x1="51.53200149536133" y1="27.365846047034633" x2="46.53200149536133" y2="27.365846047034633" style="visibility: inherit;" fill="rgb(0, 0, 0)" stroke="rgb(204, 204, 204)" stroke-width="1px"></line><line x1="51.53200149536133" y1="13.682923023517306" x2="46.53200149536133" y2="13.682923023517306" style="visibility: inherit;" fill="rgb(0, 0, 0)" stroke="rgb(204, 204, 204)" stroke-width="1px"></line><line x1="51.53200149536133" y1="0" x2="46.53200149536133" y2="0" style="visibility: inherit;" fill="rgb(0, 0, 0)" stroke="rgb(204, 204, 204)" stroke-width="1px"></line></g><g transform="translate(41.53200149536133, 0)"><text style="text-anchor: end; visibility: hidden; font-family: Roboto, sans-serif; font-size: 12px; font-weight: 200;" x="0" y="177.8779993057251" dx="0em" dy="0.3em" fill="rgb(50, 49, 63)" stroke="none" stroke-width="1px">-0.1</text><text style="text-anchor: end; visibility: inherit; font-family: Roboto, sans-serif; font-size: 12px; font-weight: 200;" x="0" y="164.1950762822078" dx="0em" dy="0.3em" fill="rgb(50, 49, 63)" stroke="none" stroke-width="1px">0</text><text style="text-anchor: end; visibility: hidden; font-family: Roboto, sans-serif; font-size: 12px; font-weight: 200;" x="0" y="150.51215325869046" dx="0em" dy="0.3em" fill="rgb(50, 49, 63)" stroke="none" stroke-width="1px">0.1</text><text style="text-anchor: end; visibility: inherit; font-family: Roboto, sans-serif; font-size: 12px; font-weight: 200;" x="0" y="136.82923023517313" dx="0em" dy="0.3em" fill="rgb(50, 49, 63)" stroke="none" stroke-width="1px">0.2</text><text style="text-anchor: end; visibility: hidden; font-family: Roboto, sans-serif; font-size: 12px; font-weight: 200;" x="0" y="123.14630721165584" dx="0em" dy="0.3em" fill="rgb(50, 49, 63)" stroke="none" stroke-width="1px">0.3</text><text style="text-anchor: end; visibility: inherit; font-family: Roboto, sans-serif; font-size: 12px; font-weight: 200;" x="0" y="109.46338418813853" dx="0em" dy="0.3em" fill="rgb(50, 49, 63)" stroke="none" stroke-width="1px">0.4</text><text style="text-anchor: end; visibility: hidden; font-family: Roboto, sans-serif; font-size: 12px; font-weight: 200;" x="0" y="95.78046116462122" dx="0em" dy="0.3em" fill="rgb(50, 49, 63)" stroke="none" stroke-width="1px">0.5</text><text style="text-anchor: end; visibility: inherit; font-family: Roboto, sans-serif; font-size: 12px; font-weight: 200;" x="0" y="82.0975381411039" dx="0em" dy="0.3em" fill="rgb(50, 49, 63)" stroke="none" stroke-width="1px">0.6</text><text style="text-anchor: end; visibility: hidden; font-family: Roboto, sans-serif; font-size: 12px; font-weight: 200;" x="0" y="68.41461511758659" dx="0em" dy="0.3em" fill="rgb(50, 49, 63)" stroke="none" stroke-width="1px">0.7</text><text style="text-anchor: end; visibility: inherit; font-family: Roboto, sans-serif; font-size: 12px; font-weight: 200;" x="0" y="54.73169209406927" dx="0em" dy="0.3em" fill="rgb(50, 49, 63)" stroke="none" stroke-width="1px">0.8</text><text style="text-anchor: end; visibility: hidden; font-family: Roboto, sans-serif; font-size: 12px; font-weight: 200;" x="0" y="41.048769070551955" dx="0em" dy="0.3em" fill="rgb(50, 49, 63)" stroke="none" stroke-width="1px">0.9</text><text style="text-anchor: end; visibility: inherit; font-family: Roboto, sans-serif; font-size: 12px; font-weight: 200;" x="0" y="27.365846047034633" dx="0em" dy="0.3em" fill="rgb(50, 49, 63)" stroke="none" stroke-width="1px">1</text><text style="text-anchor: end; visibility: hidden; font-family: Roboto, sans-serif; font-size: 12px; font-weight: 200;" x="0" y="13.682923023517306" dx="0em" dy="0.3em" fill="rgb(50, 49, 63)" stroke="none" stroke-width="1px">1.1</text><text style="text-anchor: end; visibility: hidden; font-family: Roboto, sans-serif; font-size: 12px; font-weight: 200;" x="0" y="0" dx="0em" dy="0.3em" fill="rgb(50, 49, 63)" stroke="none" stroke-width="1px">1.2</text></g><line x1="51.53200149536133" y1="0" x2="51.53200149536133" y2="177.8779993057251" fill="rgb(0, 0, 0)" stroke="rgb(204, 204, 204)" stroke-width="1px"></line></g></g><g transform="translate(51, 0)" clip-path="url(#clip_0)"><clipPath id="clip_0"><rect width="278" height="177"></rect></clipPath><g><g><g><line x1="0" y1="0" x2="0" y2="177.8779993057251" fill="rgb(0, 0, 0)" stroke="rgb(60, 60, 60)" stroke-width="1px" opacity="0.25"></line><line x1="30.94088872273763" y1="0" x2="30.94088872273763" y2="177.8779993057251" fill="rgb(0, 0, 0)" stroke="rgb(60, 60, 60)" stroke-width="1px" opacity="0.25"></line><line x1="61.88177744547526" y1="0" x2="61.88177744547526" y2="177.8779993057251" fill="rgb(0, 0, 0)" stroke="rgb(60, 60, 60)" stroke-width="1px" opacity="0.25"></line><line x1="92.82266616821289" y1="0" x2="92.82266616821289" y2="177.8779993057251" fill="rgb(0, 0, 0)" stroke="rgb(60, 60, 60)" stroke-width="1px" opacity="0.25"></line><line x1="123.76355489095052" y1="0" x2="123.76355489095052" y2="177.8779993057251" fill="rgb(0, 0, 0)" stroke="rgb(60, 60, 60)" stroke-width="1px" opacity="0.25"></line><line x1="154.70444361368817" y1="0" x2="154.70444361368817" y2="177.8779993057251" fill="rgb(0, 0, 0)" stroke="rgb(60, 60, 60)" stroke-width="1px" opacity="0.25"></line><line x1="185.64533233642578" y1="0" x2="185.64533233642578" y2="177.8779993057251" fill="rgb(0, 0, 0)" stroke="rgb(60, 60, 60)" stroke-width="1px" opacity="0.25"></line><line x1="216.58622105916342" y1="0" x2="216.58622105916342" y2="177.8779993057251" fill="rgb(0, 0, 0)" stroke="rgb(60, 60, 60)" stroke-width="1px" opacity="0.25"></line><line x1="247.52710978190103" y1="0" x2="247.52710978190103" y2="177.8779993057251" fill="rgb(0, 0, 0)" stroke="rgb(60, 60, 60)" stroke-width="1px" opacity="0.25"></line><line x1="278.4679985046387" y1="0" x2="278.4679985046387" y2="177.8779993057251" fill="rgb(0, 0, 0)" stroke="rgb(60, 60, 60)" stroke-width="1px" opacity="0.25"></line></g><g><line x1="0" y1="177.8779993057251" x2="278.4679985046387" y2="177.8779993057251" fill="rgb(0, 0, 0)" stroke="rgb(60, 60, 60)" stroke-width="1px" opacity="0.25"></line><line x1="0" y1="164.1950762822078" x2="278.4679985046387" y2="164.1950762822078" fill="rgb(0, 0, 0)" stroke="rgb(60, 60, 60)" stroke-width="1px" opacity="0.25"></line><line x1="0" y1="150.51215325869046" x2="278.4679985046387" y2="150.51215325869046" fill="rgb(0, 0, 0)" stroke="rgb(60, 60, 60)" stroke-width="1px" opacity="0.25"></line><line x1="0" y1="136.82923023517313" x2="278.4679985046387" y2="136.82923023517313" fill="rgb(0, 0, 0)" stroke="rgb(60, 60, 60)" stroke-width="1px" opacity="0.25"></line><line x1="0" y1="123.14630721165584" x2="278.4679985046387" y2="123.14630721165584" fill="rgb(0, 0, 0)" stroke="rgb(60, 60, 60)" stroke-width="1px" opacity="0.25"></line><line x1="0" y1="109.46338418813853" x2="278.4679985046387" y2="109.46338418813853" fill="rgb(0, 0, 0)" stroke="rgb(60, 60, 60)" stroke-width="1px" opacity="0.25"></line><line x1="0" y1="95.78046116462122" x2="278.4679985046387" y2="95.78046116462122" fill="rgb(0, 0, 0)" stroke="rgb(60, 60, 60)" stroke-width="1px" opacity="0.25"></line><line x1="0" y1="82.0975381411039" x2="278.4679985046387" y2="82.0975381411039" fill="rgb(0, 0, 0)" stroke="rgb(60, 60, 60)" stroke-width="1px" opacity="0.25"></line><line x1="0" y1="68.41461511758659" x2="278.4679985046387" y2="68.41461511758659" fill="rgb(0, 0, 0)" stroke="rgb(60, 60, 60)" stroke-width="1px" opacity="0.25"></line><line x1="0" y1="54.73169209406927" x2="278.4679985046387" y2="54.73169209406927" fill="rgb(0, 0, 0)" stroke="rgb(60, 60, 60)" stroke-width="1px" opacity="0.25"></line><line x1="0" y1="41.048769070551955" x2="278.4679985046387" y2="41.048769070551955" fill="rgb(0, 0, 0)" stroke="rgb(60, 60, 60)" stroke-width="1px" opacity="0.25"></line><line x1="0" y1="27.365846047034633" x2="278.4679985046387" y2="27.365846047034633" fill="rgb(0, 0, 0)" stroke="rgb(60, 60, 60)" stroke-width="1px" opacity="0.25"></line><line x1="0" y1="13.682923023517306" x2="278.4679985046387" y2="13.682923023517306" fill="rgb(0, 0, 0)" stroke="rgb(60, 60, 60)" stroke-width="1px" opacity="0.25"></line><line x1="0" y1="0" x2="278.4679985046387" y2="0" fill="rgb(0, 0, 0)" stroke="rgb(60, 60, 60)" stroke-width="1px" opacity="0.25"></line></g></g></g><g><g><line x1="0" y1="164.1950762822078" x2="278.4679985046387" y2="164.1950762822078" fill="rgb(0, 0, 0)" stroke="rgb(153, 153, 153)" stroke-width="1.5px"></line></g></g><g><g><line x1="30.94088872273763" y1="0" x2="30.94088872273763" y2="177.8779993057251" fill="rgb(0, 0, 0)" stroke="rgb(153, 153, 153)" stroke-width="1.5px"></line></g></g><g><g><g><g><g><path style="fill: none;" stroke="rgb(255, 112, 67)" stroke-width="2px" d="M30.94088872273763,127.2389654755134L46.411333084106445,123.11576315230475L61.88177744547526,111.88058298925868L77.35222180684408,92.57914096643704L92.82266616821289,79.8728503636434L108.29311052958171,70.55444982702934L123.76355489095052,63.339220334343L139.23399925231934,57.94870012808564L154.70444361368817,56.229193426916474L170.17488797505698,51.86543547970527L185.64533233642578,50.735495697600825L201.1157766977946,52.264001038349306L216.58622105916342,48.75067208318889L232.05666542053223,49.873402395036884L247.52710978190103,49.12865089478553" fill="none"></path></g><g><path style="fill: none;" stroke="rgb(187, 187, 187)" stroke-width="2px" d="M30.94088872273763,130.99321247251717L46.411333084106445,109.67113371454533L61.88177744547526,91.09521838245057L77.35222180684408,71.33472932347146L92.82266616821289,55.241209010586374L108.29311052958171,45.57882957880055L123.76355489095052,40.43325210626567L139.23399925231934,36.20607167641193L154.70444361368817,33.618261948182614L170.17488797505698,31.929198859665597L185.64533233642578,31.100585113727202L201.1157766977946,30.320539540614437L216.58622105916342,30.000960004516447L232.05666542053223,29.443806554910402L247.52710978190103,29.35350181693866" fill="none"></path></g><g><path style="fill: none;" stroke="rgb(0, 153, 136)" stroke-width="2px" d="M30.94088872273763,129.1936686480779L46.411333084106445,125.33771193462954L61.88177744547526,117.64371780875189L77.35222180684408,104.42413800042598L92.82266616821289,91.26978976835L108.29311052958171,77.73335974495316L123.76355489095052,68.31799065675669L139.23399925231934,61.32441125205295L154.70444361368817,57.69785881528016L170.17488797505698,57.73329717638263L185.64533233642578,58.98055909791657L201.1157766977946,55.832565097669395L216.58622105916342,57.56909151575885L232.05666542053223,51.909445536459685L247.52710978190103,50.741017392190024" fill="none"></path></g><g><path style="fill: none;" stroke="rgb(238, 51, 119)" stroke-width="2px" d="M30.94088872273763,134.1015273047779L46.411333084106445,112.7873761009189L61.88177744547526,96.27473071946197L77.35222180684408,77.59139146090457L92.82266616821289,61.57955488304852L108.29311052958171,50.08816942416765L123.76355489095052,42.63268525053699L139.23399925231934,37.70167601702082L154.70444361368817,34.596686379669435L170.17488797505698,32.682359710278185L185.64533233642578,31.424053301156334L201.1157766977946,31.633227845550596L216.58622105916342,30.72182728217522L232.05666542053223,30.719178908368786L247.52710978190103,30.011863510051175" fill="none"></path></g><g><path style="fill: none;" stroke="rgb(51, 187, 238)" stroke-width="2px" d="M30.94088872273763,127.91089787688622L46.411333084106445,124.81849422299749L61.88177744547526,113.24438770922256L77.35222180684408,90.59321949550817L92.82266616821289,75.7809514152851L108.29311052958171,65.12949285548177L123.76355489095052,58.86473064439156L139.23399925231934,55.120622524700096L154.70444361368817,52.692673531361905L170.17488797505698,49.481722797339614L185.64533233642578,48.7692399508186L201.1157766977946,47.70674222314276L216.58622105916342,46.70374095496816L232.05666542053223,46.469572147489615L247.52710978190103,44.83802775277888" fill="none"></path></g><g><path style="fill: none;" stroke="rgb(204, 51, 17)" stroke-width="2px" d="M30.94088872273763,131.77980730388933L46.411333084106445,110.3705050615326L61.88177744547526,92.70283078761324L77.35222180684408,71.55637384023422L92.82266616821289,55.93349899892862L108.29311052958171,46.15099104877677L123.76355489095052,39.845850609480394L139.23399925231934,35.966036813720386L154.70444361368817,33.96223349216406L170.17488797505698,32.109216537601164L185.64533233642578,30.92311323650613L201.1157766977946,30.26506975051258L216.58622105916342,30.09474247487237L232.05666542053223,29.6016250091357L247.52710978190103,29.270459203104085" fill="none"></path></g><g><path style="fill: none;" stroke="rgb(0, 119, 187)" stroke-width="2px" d="M30.94088872273763,129.1936686480779L46.411333084106445,124.57415632642692L61.88177744547526,109.57184121956293L77.35222180684408,89.92780416923299L92.82266616821289,77.81509702671536L108.29311052958171,68.8987473920916L123.76355489095052,60.80634994726063L139.23399925231934,56.6699481604315L154.70444361368817,54.25770727460224L170.17488797505698,52.03937627400267L185.64533233642578,50.54533353961145L201.1157766977946,50.26456277510257L216.58622105916342,50.02309306596381L232.05666542053223,52.543787406071694L247.52710978190103,48.89698353248682" fill="none"></path></g><g><path style="fill: none;" stroke="rgb(255, 112, 67)" stroke-width="2px" d="M30.94088872273763,129.85138166031518L46.411333084106445,109.27466502234984L61.88177744547526,89.23579413825021L77.35222180684408,67.60701460731987L92.82266616821289,52.976227958262804L108.29311052958171,43.998019547066946L123.76355489095052,38.51099702830685L139.23399925231934,35.17424603473179L154.70444361368817,33.321210138597785L170.17488797505698,31.756797569267352L185.64533233642578,30.803851107480995L201.1157766977946,30.18852938775421L216.58622105916342,29.66266959392501L232.05666542053223,29.215544649352466L247.52710978190103,29.175969662124256" fill="none"></path></g><g><path style="fill: none;" stroke="rgb(187, 187, 187)" stroke-width="2px" d="M30.94088872273763,128.5217403245339L46.411333084106445,124.5894288148582L61.88177744547526,119.17831015583783L77.35222180684408,108.50983798609677L92.82266616821289,89.5828252853735L108.29311052958171,78.2150889769375L123.76355489095052,69.90862736659486L139.23399925231934,61.67149500395361L154.70444361368817,57.682551104462675L170.17488797505698,54.65134443277323L185.64533233642578,55.44380642340978L201.1157766977946,52.48924639906881L216.58622105916342,49.913263417732104L232.05666542053223,50.54613897482044L247.52710978190103,48.79880724504564" fill="none"></path></g><g><path style="fill: none;" stroke="rgb(0, 153, 136)" stroke-width="2px" d="M30.94088872273763,128.96329578606952L46.411333084106445,109.87729829083105L61.88177744547526,94.66866376981595L77.35222180684408,77.20149844760414L92.82266616821289,62.041101233998546L108.29311052958171,50.30815530660565L123.76355489095052,42.694269810778735L139.23399925231934,37.69691683141195L154.70444361368817,34.47081373211295L170.17488797505698,32.69904474160374L185.64533233642578,32.4679746318446L201.1157766977946,31.29743935218351L216.58622105916342,30.332518209318668L232.05666542053223,29.744215858964335L247.52710978190103,29.213825648345736" fill="none"></path></g><g><path style="fill: none;" stroke="rgb(255, 112, 67)" stroke-width="2px" d="M30.94088872273763,132.61440225843742L46.411333084106445,127.46039999158738L61.88177744547526,116.9069642818836L77.35222180684408,97.26063813784144L92.82266616821289,80.43083643684997L108.29311052958171,67.31580967213414L123.76355489095052,61.91095810698074L139.23399925231934,55.709836808582004L154.70444361368817,51.365391557800805L170.17488797505698,51.68763975224323L185.64533233642578,50.67812385615384L201.1157766977946,47.45464322913516L216.58622105916342,45.69631235670955L232.05666542053223,44.178177791920284L247.52710978190103,43.7814117438098" fill="none"></path></g><g><path style="fill: none;" stroke="rgb(187, 187, 187)" stroke-width="2px" d="M30.94088872273763,128.62074593073459L46.411333084106445,109.48717291624727L61.88177744547526,94.13549788627611L77.35222180684408,76.10875829294217L92.82266616821289,59.633938802547284L108.29311052958171,48.58626734669389L123.76355489095052,41.60788138968718L139.23399925231934,36.96475969506979L154.70444361368817,34.347214983522825L170.17488797505698,33.370615503517236L185.64533233642578,31.93786944366767L201.1157766977946,30.873037985938122L216.58622105916342,30.35757711921972L232.05666542053223,29.677981936346463L247.52710978190103,29.53457768078807" fill="none"></path></g></g></g></g><g opacity="0.2"><g><g><g><path style="fill: none;" stroke="rgb(255, 112, 67)" stroke-width="2px" d="M30.94088872273763,127.2389654755134L46.411333084106445,120.6418417583796L61.88177744547526,101.09481003273453L77.35222180684408,69.88064514759871L92.82266616821289,63.28351735263606L108.29311052958171,57.663747260698905L123.76355489095052,53.02132671612961L139.23399925231934,50.08926991836843L154.70444361368817,53.693255039673595L170.17488797505698,45.385763497902815L185.64533233642578,49.0508344951043L201.1157766977946,54.54844099090649L216.58622105916342,43.49215027906345L232.05666542053223,51.55529831724902L247.52710978190103,48.01239907184016" fill="none"></path></g><g><path style="fill: none;" stroke="rgb(187, 187, 187)" stroke-width="2px" d="M30.94088872273763,130.99321247251717L46.411333084106445,96.87788645976225L61.88177744547526,73.26233966363957L77.35222180684408,48.09639419011197L92.82266616821289,34.22950889008366L108.29311052958171,32.21228036804532L123.76355489095052,33.07499399130122L139.23399925231934,30.04280202875302L154.70444361368817,29.801745255206022L170.17488797505698,29.421137023386443L185.64533233642578,29.865179960509295L201.1157766977946,29.154716154507355L216.58622105916342,29.522634183003206L232.05666542053223,28.60916790211009L247.52710978190103,29.21815085981061" fill="none"></path></g><g><path style="fill: none;" stroke="rgb(0, 153, 136)" stroke-width="2px" d="M30.94088872273763,129.1936686480779L46.411333084106445,123.02413790656055L61.88177744547526,110.25748344790935L77.35222180684408,88.87791214583471L92.82266616821289,74.09547271655155L108.29311052958171,59.007603907786894L123.76355489095052,54.85386221473034L139.23399925231934,51.12770534163257L154.70444361368817,52.34939839258562L170.17488797505698,57.78591901249152L185.64533233642578,60.840139406387635L201.1157766977946,51.12770534163257L216.58622105916342,60.16821108284365L232.05666542053223,43.431064403167134L247.52710978190103,48.98974861920798" fill="none"></path></g><g><path style="fill: none;" stroke="rgb(238, 51, 119)" stroke-width="2px" d="M30.94088872273763,134.1015273047779L46.411333084106445,99.99888537860348L61.88177744547526,80.42259115326335L77.35222180684408,55.61978449284106L92.82266616821289,40.67450104699962L108.29311052958171,34.19144643577017L123.76355489095052,31.971223594498323L139.23399925231934,30.512217216865633L154.70444361368817,30.017429777763255L170.17488797505698,29.839807709519512L185.64533233642578,29.54800643399297L201.1157766977946,31.94585134350856L216.58622105916342,29.35770231808319L232.05666542053223,30.715211536099137L247.52710978190103,28.951721835273847" fill="none"></path></g><g><path style="fill: none;" stroke="rgb(51, 187, 238)" stroke-width="2px" d="M30.94088872273763,127.91089787688622L46.411333084106445,122.96305203066423L61.88177744547526,102.13324545599865L77.35222180684408,63.95544567618005L92.82266616821289,56.442054209745876L108.29311052958171,50.394691142192265L123.76355489095052,49.906020446337195L139.23399925231934,49.66167694275198L154.70444361368817,49.11192037100059L170.17488797505698,44.713835174358834L185.64533233642578,47.7069778480163L201.1157766977946,46.11877769734312L216.58622105916342,45.20251402587158L232.05666542053223,46.11877769734312L247.52710978190103,42.392628979903" fill="none"></path></g><g><path style="fill: none;" stroke="rgb(204, 51, 17)" stroke-width="2px" d="M30.94088872273763,131.77980730388933L46.411333084106445,97.5249237161186L61.88177744547526,75.74186348465066L77.35222180684408,46.688140470116494L92.82266616821289,35.53627360612006L108.29311052958171,32.61826085085466L123.76355489095052,30.829398899039607L139.23399925231934,30.30923105328978L154.70444361368817,31.007012811625682L170.17488797505698,29.35770231808319L185.64533233642578,29.154716154507355L201.1157766977946,29.281585565113883L216.58622105916342,29.839807709519512L232.05666542053223,28.862914878980813L247.52710978190103,28.774099767030105" fill="none"></path></g><g><path style="fill: none;" stroke="rgb(0, 119, 187)" stroke-width="2px" d="M30.94088872273763,129.1936686480779L46.411333084106445,121.80244893343632L61.88177744547526,95.16961871697352L77.35222180684408,66.82641659804493L92.82266616821289,62.00074658144437L108.29311052958171,56.56422596153847L123.76355489095052,49.234092122793186L139.23399925231934,50.63903464577748L154.70444361368817,50.700120521673774L170.17488797505698,48.74541327128044L185.64533233642578,48.31782029566399L201.1157766977946,49.84493457044088L216.58622105916342,49.66167694275198L232.05666542053223,56.31989061361093L247.52710978190103,43.431064403167134" fill="none"></path></g><g><path style="fill: none;" stroke="rgb(255, 112, 67)" stroke-width="2px" d="M30.94088872273763,129.85138166031518L46.411333084106445,96.92863503957062L61.88177744547526,69.99847808951456L77.35222180684408,42.171569878945824L92.82266616821289,33.87427290925385L108.29311052958171,31.577925159355036L123.76355489095052,30.664467034119593L139.23399925231934,30.30923105328978L154.70444361368817,30.588342125492613L170.17488797505698,29.43382722671017L185.64533233642578,29.383074569072953L201.1157766977946,29.268895361790154L216.58622105916342,28.875596926646868L232.05666542053223,28.545733196806836L247.52710978190103,29.116653700193865" fill="none"></path></g><g><path style="fill: none;" stroke="rgb(187, 187, 187)" stroke-width="2px" d="M30.94088872273763,128.5217403245339L46.411333084106445,122.23004190905277L61.88177744547526,113.9836362431783L77.35222180684408,95.96371471448128L92.82266616821289,64.87171750330924L108.29311052958171,62.48941727729946L123.76355489095052,58.03025436041906L139.23399925231934,49.66167694275198L154.70444361368817,51.79963366517656L170.17488797505698,50.150355794264726L185.64533233642578,56.625311837434765L201.1157766977946,48.07348494773645L216.58622105916342,46.05769997710448L232.05666542053223,51.49421244135272L247.52710978190103,46.179863573239416" fill="none"></path></g><g><path style="fill: none;" stroke="rgb(0, 153, 136)" stroke-width="2px" d="M30.94088872273763,128.96329578606952L46.411333084106445,98.42569979368798L61.88177744547526,80.06837462964144L77.35222180684408,56.66011202868304L92.82266616821289,42.24768663191515L108.29311052958171,34.07726722848735L123.76355489095052,31.80629172957831L139.23399925231934,30.41072821290654L154.70444361368817,29.712938298912984L170.17488797505698,30.068174279742802L185.64533233642578,32.12346525609461L201.1157766977946,29.54800643399297L216.58622105916342,28.888287129970575L232.05666542053223,28.862914878980813L247.52710978190103,28.418863786200312" fill="none"></path></g><g><path style="fill: none;" stroke="rgb(255, 112, 67)" stroke-width="2px" d="M30.94088872273763,132.61440225843742L46.411333084106445,124.36799863147735L61.88177744547526,106.77566600056797L77.35222180684408,74.15655859244785L92.82266616821289,58.457847336035506L108.29311052958171,49.17300624689689L123.76355489095052,54.18193389118634L139.23399925231934,46.66854242475216L154.70444361368817,44.95817867794404L170.17488797505698,52.16614076489671L185.64533233642578,49.17300624689689L201.1157766977946,42.636964327830555L216.58622105916342,43.064557303447L232.05666542053223,41.90395012839025L247.52710978190103,43.186729055239596" fill="none"></path></g><g><path style="fill: none;" stroke="rgb(187, 187, 187)" stroke-width="2px" d="M30.94088872273763,128.62074593073459L46.411333084106445,98.00702910755491L61.88177744547526,79.39788985750381L77.35222180684408,54.90931253118147L92.82266616821289,38.12441447588776L108.29311052958171,33.303360561524485L123.76355489095052,31.628677816992234L139.23399925231934,30.19504369034931L154.70444361368817,30.48684496587585L170.17488797505698,31.92047909251878L185.64533233642578,29.801745255206022L201.1157766977946,29.281585565113883L216.58622105916342,29.58606888830646L232.05666542053223,28.659920559747306L247.52710978190103,29.3196398637697" fill="none"></path></g></g></g></g></g></g><g transform="translate(51, 177)" clip-path="url(#clip_1)"><clipPath id="clip_1"><rect width="278" height="22"></rect></clipPath><g><g><line x1="0" y1="0" x2="0" y2="5" style="visibility: inherit;" fill="rgb(0, 0, 0)" stroke="rgb(204, 204, 204)" stroke-width="1px"></line><line x1="30.94088872273763" y1="0" x2="30.94088872273763" y2="5" style="visibility: inherit;" fill="rgb(0, 0, 0)" stroke="rgb(204, 204, 204)" stroke-width="1px"></line><line x1="61.88177744547526" y1="0" x2="61.88177744547526" y2="5" style="visibility: inherit;" fill="rgb(0, 0, 0)" stroke="rgb(204, 204, 204)" stroke-width="1px"></line><line x1="92.82266616821289" y1="0" x2="92.82266616821289" y2="5" style="visibility: inherit;" fill="rgb(0, 0, 0)" stroke="rgb(204, 204, 204)" stroke-width="1px"></line><line x1="123.76355489095052" y1="0" x2="123.76355489095052" y2="5" style="visibility: inherit;" fill="rgb(0, 0, 0)" stroke="rgb(204, 204, 204)" stroke-width="1px"></line><line x1="154.70444361368817" y1="0" x2="154.70444361368817" y2="5" style="visibility: inherit;" fill="rgb(0, 0, 0)" stroke="rgb(204, 204, 204)" stroke-width="1px"></line><line x1="185.64533233642578" y1="0" x2="185.64533233642578" y2="5" style="visibility: inherit;" fill="rgb(0, 0, 0)" stroke="rgb(204, 204, 204)" stroke-width="1px"></line><line x1="216.58622105916342" y1="0" x2="216.58622105916342" y2="5" style="visibility: inherit;" fill="rgb(0, 0, 0)" stroke="rgb(204, 204, 204)" stroke-width="1px"></line><line x1="247.52710978190103" y1="0" x2="247.52710978190103" y2="5" style="visibility: inherit;" fill="rgb(0, 0, 0)" stroke="rgb(204, 204, 204)" stroke-width="1px"></line><line x1="278.4679985046387" y1="0" x2="278.4679985046387" y2="5" style="visibility: inherit;" fill="rgb(0, 0, 0)" stroke="rgb(204, 204, 204)" stroke-width="1px"></line></g><g transform="translate(0, 8)"><text style="text-anchor: middle; visibility: hidden; font-family: Roboto, sans-serif; font-size: 12px; font-weight: 200;" x="0" y="0" dx="0em" dy="0.95em" fill="rgb(50, 49, 63)" stroke="none" stroke-width="1px">-2</text><text style="text-anchor: middle; visibility: inherit; font-family: Roboto, sans-serif; font-size: 12px; font-weight: 200;" x="30.94088872273763" y="0" dx="0em" dy="0.95em" fill="rgb(50, 49, 63)" stroke="none" stroke-width="1px">0</text><text style="text-anchor: middle; visibility: inherit; font-family: Roboto, sans-serif; font-size: 12px; font-weight: 200;" x="61.88177744547526" y="0" dx="0em" dy="0.95em" fill="rgb(50, 49, 63)" stroke="none" stroke-width="1px">2</text><text style="text-anchor: middle; visibility: inherit; font-family: Roboto, sans-serif; font-size: 12px; font-weight: 200;" x="92.82266616821289" y="0" dx="0em" dy="0.95em" fill="rgb(50, 49, 63)" stroke="none" stroke-width="1px">4</text><text style="text-anchor: middle; visibility: inherit; font-family: Roboto, sans-serif; font-size: 12px; font-weight: 200;" x="123.76355489095052" y="0" dx="0em" dy="0.95em" fill="rgb(50, 49, 63)" stroke="none" stroke-width="1px">6</text><text style="text-anchor: middle; visibility: inherit; font-family: Roboto, sans-serif; font-size: 12px; font-weight: 200;" x="154.70444361368817" y="0" dx="0em" dy="0.95em" fill="rgb(50, 49, 63)" stroke="none" stroke-width="1px">8</text><text style="text-anchor: middle; visibility: inherit; font-family: Roboto, sans-serif; font-size: 12px; font-weight: 200;" x="185.64533233642578" y="0" dx="0em" dy="0.95em" fill="rgb(50, 49, 63)" stroke="none" stroke-width="1px">10</text><text style="text-anchor: middle; visibility: inherit; font-family: Roboto, sans-serif; font-size: 12px; font-weight: 200;" x="216.58622105916342" y="0" dx="0em" dy="0.95em" fill="rgb(50, 49, 63)" stroke="none" stroke-width="1px">12</text><text style="text-anchor: middle; visibility: inherit; font-family: Roboto, sans-serif; font-size: 12px; font-weight: 200;" x="247.52710978190103" y="0" dx="0em" dy="0.95em" fill="rgb(50, 49, 63)" stroke="none" stroke-width="1px">14</text><text style="text-anchor: middle; visibility: hidden; font-family: Roboto, sans-serif; font-size: 12px; font-weight: 200;" x="278.4679985046387" y="0" dx="0em" dy="0.95em" fill="rgb(50, 49, 63)" stroke="none" stroke-width="1px">16</text></g><line x1="0" y1="0" x2="278.4679985046387" y2="0" fill="rgb(0, 0, 0)" stroke="rgb(204, 204, 204)" stroke-width="1px"></line></g></g></g></g></svg>