<svg viewBox="0 0 330 200" xmlns="http://www.w3.org/2000/svg"><g><g><g><g><g><line x1="51.53200149536133" y1="177.8779993057251" x2="46.53200149536133" y2="177.8779993057251" style="visibility: inherit;" fill="rgb(0, 0, 0)" stroke="rgb(204, 204, 204)" stroke-width="1px"></line><line x1="51.53200149536133" y1="163.05483269691467" x2="46.53200149536133" y2="163.05483269691467" style="visibility: inherit;" fill="rgb(0, 0, 0)" stroke="rgb(204, 204, 204)" stroke-width="1px"></line><line x1="51.53200149536133" y1="148.23166608810425" x2="46.53200149536133" y2="148.23166608810425" style="visibility: inherit;" fill="rgb(0, 0, 0)" stroke="rgb(204, 204, 204)" stroke-width="1px"></line><line x1="51.53200149536133" y1="133.40849947929382" x2="46.53200149536133" y2="133.40849947929382" style="visibility: inherit;" fill="rgb(0, 0, 0)" stroke="rgb(204, 204, 204)" stroke-width="1px"></line><line x1="51.53200149536133" y1="118.58533287048341" x2="46.53200149536133" y2="118.58533287048341" style="visibility: inherit;" fill="rgb(0, 0, 0)" stroke="rgb(204, 204, 204)" stroke-width="1px"></line><line x1="51.53200149536133" y1="103.76216626167297" x2="46.53200149536133" y2="103.76216626167297" style="visibility: inherit;" fill="rgb(0, 0, 0)" stroke="rgb(204, 204, 204)" stroke-width="1px"></line><line x1="51.53200149536133" y1="88.93899965286256" x2="46.53200149536133" y2="88.93899965286256" style="visibility: inherit;" fill="rgb(0, 0, 0)" stroke="rgb(204, 204, 204)" stroke-width="1px"></line><line x1="51.53200149536133" y1="74.11583304405214" x2="46.53200149536133" y2="74.11583304405214" style="visibility: inherit;" fill="rgb(0, 0, 0)" stroke="rgb(204, 204, 204)" stroke-width="1px"></line><line x1="51.53200149536133" y1="59.29266643524173" x2="46.53200149536133" y2="59.29266643524173" style="visibility: inherit;" fill="rgb(0, 0, 0)" stroke="rgb(204, 204, 204)" stroke-width="1px"></line><line x1="51.53200149536133" y1="44.469499826431296" x2="46.53200149536133" y2="44.469499826431296" style="visibility: inherit;" fill="rgb(0, 0, 0)" stroke="rgb(204, 204, 204)" stroke-width="1px"></line><line x1="51.53200149536133" y1="29.646333217620864" x2="46.53200149536133" y2="29.646333217620864" style="visibility: inherit;" fill="rgb(0, 0, 0)" stroke="rgb(204, 204, 204)" stroke-width="1px"></line><line x1="51.53200149536133" y1="14.823166608810432" x2="46.53200149536133" y2="14.823166608810432" style="visibility: inherit;" fill="rgb(0, 0, 0)" stroke="rgb(204, 204, 204)" stroke-width="1px"></line><line x1="51.53200149536133" y1="0" x2="46.53200149536133" y2="0" style="visibility: inherit;" fill="rgb(0, 0, 0)" stroke="rgb(204, 204, 204)" stroke-width="1px"></line></g><g transform="translate(41.53200149536133, 0)"><text style="text-anchor: end; visibility: hidden; font-family: Roboto, sans-serif; font-size: 12px; font-weight: 200;" x="0" y="177.8779993057251" dx="0em" dy="0.3em" fill="rgb(50, 49, 63)" stroke="none" stroke-width="1px">-0.2</text><text style="text-anchor: end; visibility: inherit; font-family: Roboto, sans-serif; font-size: 12px; font-weight: 200;" x="0" y="163.05483269691467" dx="0em" dy="0.3em" fill="rgb(50, 49, 63)" stroke="none" stroke-width="1px">0</text><text style="text-anchor: end; visibility: hidden; font-family: Roboto, sans-serif; font-size: 12px; font-weight: 200;" x="0" y="148.23166608810425" dx="0em" dy="0.3em" fill="rgb(50, 49, 63)" stroke="none" stroke-width="1px">0.2</text><text style="text-anchor: end; visibility: inherit; font-family: Roboto, sans-serif; font-size: 12px; font-weight: 200;" x="0" y="133.40849947929382" dx="0em" dy="0.3em" fill="rgb(50, 49, 63)" stroke="none" stroke-width="1px">0.4</text><text style="text-anchor: end; visibility: hidden; font-family: Roboto, sans-serif; font-size: 12px; font-weight: 200;" x="0" y="118.58533287048341" dx="0em" dy="0.3em" fill="rgb(50, 49, 63)" stroke="none" stroke-width="1px">0.6</text><text style="text-anchor: end; visibility: inherit; font-family: Roboto, sans-serif; font-size: 12px; font-weight: 200;" x="0" y="103.76216626167297" dx="0em" dy="0.3em" fill="rgb(50, 49, 63)" stroke="none" stroke-width="1px">0.8</text><text style="text-anchor: end; visibility: hidden; font-family: Roboto, sans-serif; font-size: 12px; font-weight: 200;" x="0" y="88.93899965286256" dx="0em" dy="0.3em" fill="rgb(50, 49, 63)" stroke="none" stroke-width="1px">1</text><text style="text-anchor: end; visibility: inherit; font-family: Roboto, sans-serif; font-size: 12px; font-weight: 200;" x="0" y="74.11583304405214" dx="0em" dy="0.3em" fill="rgb(50, 49, 63)" stroke="none" stroke-width="1px">1.2</text><text style="text-anchor: end; visibility: hidden; font-family: Roboto, sans-serif; font-size: 12px; font-weight: 200;" x="0" y="59.29266643524173" dx="0em" dy="0.3em" fill="rgb(50, 49, 63)" stroke="none" stroke-width="1px">1.4</text><text style="text-anchor: end; visibility: inherit; font-family: Roboto, sans-serif; font-size: 12px; font-weight: 200;" x="0" y="44.469499826431296" dx="0em" dy="0.3em" fill="rgb(50, 49, 63)" stroke="none" stroke-width="1px">1.6</text><text style="text-anchor: end; visibility: hidden; font-family: Roboto, sans-serif; font-size: 12px; font-weight: 200;" x="0" y="29.646333217620864" dx="0em" dy="0.3em" fill="rgb(50, 49, 63)" stroke="none" stroke-width="1px">1.8</text><text style="text-anchor: end; visibility: inherit; font-family: Roboto, sans-serif; font-size: 12px; font-weight: 200;" x="0" y="14.823166608810432" dx="0em" dy="0.3em" fill="rgb(50, 49, 63)" stroke="none" stroke-width="1px">2</text><text style="text-anchor: end; visibility: hidden; font-family: Roboto, sans-serif; font-size: 12px; font-weight: 200;" x="0" y="0" dx="0em" dy="0.3em" fill="rgb(50, 49, 63)" stroke="none" stroke-width="1px">2.2</text></g><line x1="51.53200149536133" y1="0" x2="51.53200149536133" y2="177.8779993057251" fill="rgb(0, 0, 0)" stroke="rgb(204, 204, 204)" stroke-width="1px"></line></g></g><g transform="translate(51, 0)" clip-path="url(#clip_0)"><clipPath id="clip_0"><rect width="278" height="177"></rect></clipPath><g><g><g><line x1="0" y1="0" x2="0" y2="177.8779993057251" fill="rgb(0, 0, 0)" stroke="rgb(60, 60, 60)" stroke-width="1px" opacity="0.25"></line><line x1="30.94088872273763" y1="0" x2="30.94088872273763" y2="177.8779993057251" fill="rgb(0, 0, 0)" stroke="rgb(60, 60, 60)" stroke-width="1px" opacity="0.25"></line><line x1="61.88177744547526" y1="0" x2="61.88177744547526" y2="177.8779993057251" fill="rgb(0, 0, 0)" stroke="rgb(60, 60, 60)" stroke-width="1px" opacity="0.25"></line><line x1="92.82266616821289" y1="0" x2="92.82266616821289" y2="177.8779993057251" fill="rgb(0, 0, 0)" stroke="rgb(60, 60, 60)" stroke-width="1px" opacity="0.25"></line><line x1="123.76355489095052" y1="0" x2="123.76355489095052" y2="177.8779993057251" fill="rgb(0, 0, 0)" stroke="rgb(60, 60, 60)" stroke-width="1px" opacity="0.25"></line><line x1="154.70444361368817" y1="0" x2="154.70444361368817" y2="177.8779993057251" fill="rgb(0, 0, 0)" stroke="rgb(60, 60, 60)" stroke-width="1px" opacity="0.25"></line><line x1="185.64533233642578" y1="0" x2="185.64533233642578" y2="177.8779993057251" fill="rgb(0, 0, 0)" stroke="rgb(60, 60, 60)" stroke-width="1px" opacity="0.25"></line><line x1="216.58622105916342" y1="0" x2="216.58622105916342" y2="177.8779993057251" fill="rgb(0, 0, 0)" stroke="rgb(60, 60, 60)" stroke-width="1px" opacity="0.25"></line><line x1="247.52710978190103" y1="0" x2="247.52710978190103" y2="177.8779993057251" fill="rgb(0, 0, 0)" stroke="rgb(60, 60, 60)" stroke-width="1px" opacity="0.25"></line><line x1="278.4679985046387" y1="0" x2="278.4679985046387" y2="177.8779993057251" fill="rgb(0, 0, 0)" stroke="rgb(60, 60, 60)" stroke-width="1px" opacity="0.25"></line></g><g><line x1="0" y1="177.8779993057251" x2="278.4679985046387" y2="177.8779993057251" fill="rgb(0, 0, 0)" stroke="rgb(60, 60, 60)" stroke-width="1px" opacity="0.25"></line><line x1="0" y1="163.05483269691467" x2="278.4679985046387" y2="163.05483269691467" fill="rgb(0, 0, 0)" stroke="rgb(60, 60, 60)" stroke-width="1px" opacity="0.25"></line><line x1="0" y1="148.23166608810425" x2="278.4679985046387" y2="148.23166608810425" fill="rgb(0, 0, 0)" stroke="rgb(60, 60, 60)" stroke-width="1px" opacity="0.25"></line><line x1="0" y1="133.40849947929382" x2="278.4679985046387" y2="133.40849947929382" fill="rgb(0, 0, 0)" stroke="rgb(60, 60, 60)" stroke-width="1px" opacity="0.25"></line><line x1="0" y1="118.58533287048341" x2="278.4679985046387" y2="118.58533287048341" fill="rgb(0, 0, 0)" stroke="rgb(60, 60, 60)" stroke-width="1px" opacity="0.25"></line><line x1="0" y1="103.76216626167297" x2="278.4679985046387" y2="103.76216626167297" fill="rgb(0, 0, 0)" stroke="rgb(60, 60, 60)" stroke-width="1px" opacity="0.25"></line><line x1="0" y1="88.93899965286256" x2="278.4679985046387" y2="88.93899965286256" fill="rgb(0, 0, 0)" stroke="rgb(60, 60, 60)" stroke-width="1px" opacity="0.25"></line><line x1="0" y1="74.11583304405214" x2="278.4679985046387" y2="74.11583304405214" fill="rgb(0, 0, 0)" stroke="rgb(60, 60, 60)" stroke-width="1px" opacity="0.25"></line><line x1="0" y1="59.29266643524173" x2="278.4679985046387" y2="59.29266643524173" fill="rgb(0, 0, 0)" stroke="rgb(60, 60, 60)" stroke-width="1px" opacity="0.25"></line><line x1="0" y1="44.469499826431296" x2="278.4679985046387" y2="44.469499826431296" fill="rgb(0, 0, 0)" stroke="rgb(60, 60, 60)" stroke-width="1px" opacity="0.25"></line><line x1="0" y1="29.646333217620864" x2="278.4679985046387" y2="29.646333217620864" fill="rgb(0, 0, 0)" stroke="rgb(60, 60, 60)" stroke-width="1px" opacity="0.25"></line><line x1="0" y1="14.823166608810432" x2="278.4679985046387" y2="14.823166608810432" fill="rgb(0, 0, 0)" stroke="rgb(60, 60, 60)" stroke-width="1px" opacity="0.25"></line><line x1="0" y1="0" x2="278.4679985046387" y2="0" fill="rgb(0, 0, 0)" stroke="rgb(60, 60, 60)" stroke-width="1px" opacity="0.25"></line></g></g></g><g><g><line x1="0" y1="163.05483269691467" x2="278.4679985046387" y2="163.05483269691467" fill="rgb(0, 0, 0)" stroke="rgb(153, 153, 153)" stroke-width="1.5px"></line></g></g><g><g><line x1="30.94088872273763" y1="0" x2="30.94088872273763" y2="177.8779993057251" fill="rgb(0, 0, 0)" stroke="rgb(153, 153, 153)" stroke-width="1.5px"></line></g></g><g><g><g><g><g><path style="fill: none;" stroke="rgb(255, 112, 67)" stroke-width="2px" d="M30.94088872273763,40.193100032530175L46.411333084106445,39.531452340244286L61.88177744547526,52.28074304830781L77.35222180684408,75.86786462330339L92.82266616821289,90.21221781476761L108.29311052958171,100.490635941436L123.76355489095052,109.7218124151024L139.23399925231934,115.83860555486221L154.70444361368817,116.83429300226588L170.17488797505698,123.98830068506281L185.64533233642578,125.33727177496671L201.1157766977946,120.40905929208411L216.58622105916342,125.75400008021654L232.05666542053223,122.18133031458939L247.52710978190103,123.96686751722459" fill="none"></path></g><g><path style="fill: none;" stroke="rgb(187, 187, 187)" stroke-width="2px" d="M30.94088872273763,14.319749124624265L46.411333084106445,51.907996546260286L61.88177744547526,76.44153658022209L77.35222180684408,102.30061369321496L92.82266616821289,123.9178434484157L108.29311052958171,137.11601745237178L123.76355489095052,143.68915759450468L139.23399925231934,149.7971043756481L154.70444361368817,153.49361115180486L170.17488797505698,155.98485359665753L185.64533233642578,157.1708730461873L201.1157766977946,158.41504531142508L216.58622105916342,158.82844978094622L232.05666542053223,159.5825757822466L247.52710978190103,159.7803485846935" fill="none"></path></g><g><path style="fill: none;" stroke="rgb(0, 153, 136)" stroke-width="2px" d="M30.94088872273763,28.071869369294298L46.411333084106445,37.66861857342529L61.88177744547526,47.29306349982185L77.35222180684408,61.486532080440526L92.82266616821289,77.70102323781654L108.29311052958171,94.159616719894L123.76355489095052,104.07702559734942L139.23399925231934,111.18798523501823L154.70444361368817,115.87627321340612L170.17488797505698,113.59539659855952L185.64533233642578,110.87203537678639L201.1157766977946,117.25215644880824L216.58622105916342,112.0321888271694L232.05666542053223,121.45537759110557L247.52710978190103,122.92251887509163" fill="none"></path></g><g><path style="fill: none;" stroke="rgb(238, 51, 119)" stroke-width="2px" d="M30.94088872273763,8.621460438536031L46.411333084106445,46.481111581018986L61.88177744547526,69.82664185148248L77.35222180684408,94.33630485982758L92.82266616821289,115.03461212954267L108.29311052958171,130.56270131855803L123.76355489095052,140.76290601830982L139.23399925231934,147.49943304967317L154.70444361368817,151.98751345185195L170.17488797505698,154.70963728885516L185.64533233642578,156.68026564748683L201.1157766977946,155.93681378021367L216.58622105916342,157.50739859123846L232.05666542053223,157.44542910896473L247.52710978190103,158.7270538125155" fill="none"></path></g><g><path style="fill: none;" stroke="rgb(51, 187, 238)" stroke-width="2px" d="M30.94088872273763,35.036830237985505L46.411333084106445,39.6499756245994L61.88177744547526,52.58254575385031L77.35222180684408,79.18987167513818L92.82266616821289,96.80053387086566L108.29311052958171,109.25382030108466L123.76355489095052,114.91043141326544L139.23399925231934,116.51547263438776L154.70444361368817,119.49551641112694L170.17488797505698,123.83115243306317L185.64533233642578,125.36939309687769L201.1157766977946,126.8838985216371L216.58622105916342,129.26941884916334L232.05666542053223,128.55396891868594L247.52710978190103,130.86617465985694" fill="none"></path></g><g><path style="fill: none;" stroke="rgb(204, 51, 17)" stroke-width="2px" d="M30.94088872273763,14.15694996418314L46.411333084106445,51.174923218301934L61.88177744547526,74.82699824632222L77.35222180684408,102.00130040170463L92.82266616821289,122.70830230721785L108.29311052958171,136.0414704771888L123.76355489095052,144.8678800237919L139.23399925231934,150.33331087526366L154.70444361368817,153.00491647898494L170.17488797505698,155.72293037908833L185.64533233642578,157.32425122121273L201.1157766977946,158.32862913580433L216.58622105916342,158.68697260987616L232.05666542053223,159.37990380869198L247.52710978190103,159.8292799905259" fill="none"></path></g><g><path style="fill: none;" stroke="rgb(0, 119, 187)" stroke-width="2px" d="M30.94088872273763,37.270004263626284L46.411333084106445,43.37196325753602L61.88177744547526,55.54517352116532L77.35222180684408,76.52700924705422L92.82266616821289,87.67083987254783L108.29311052958171,101.06811066862159L123.76355489095052,112.47443910535077L139.23399925231934,117.03048800943016L154.70444361368817,118.82384708621434L170.17488797505698,122.05141179584142L185.64533233642578,123.12492562591974L201.1157766977946,121.60631648912943L216.58622105916342,120.71431375200986L232.05666542053223,113.67112836133552L247.52710978190103,121.26887872379986" fill="none"></path></g><g><path style="fill: none;" stroke="rgb(255, 112, 67)" stroke-width="2px" d="M30.94088872273763,16.67917952727057L46.411333084106445,52.37749091221607L61.88177744547526,79.3956423441121L77.35222180684408,107.43046571781309L92.82266616821289,126.95437886192961L108.29311052958171,139.28303210606367L123.76355489095052,146.84596683674604L139.23399925231934,151.45141214167143L154.70444361368817,154.03385074550772L170.17488797505698,156.25420537477362L185.64533233642578,157.6934870780716L201.1157766977946,158.57651520600743L216.58622105916342,159.3099765378447L232.05666542053223,159.96691699749493L247.52710978190103,160.0529098270846" fill="none"></path></g><g><path style="fill: none;" stroke="rgb(187, 187, 187)" stroke-width="2px" d="M30.94088872273763,37.617735000491635L46.411333084106445,43.33594948743653L61.88177744547526,50.97623434252687L77.35222180684408,57.80914986063371L92.82266616821289,78.93651135731781L108.29311052958171,91.50118512350235L123.76355489095052,101.10159503103809L139.23399925231934,109.87260744923306L154.70444361368817,114.84866527296641L170.17488797505698,118.09900416059222L185.64533233642578,117.51465282966139L201.1157766977946,122.34399190894558L216.58622105916342,126.26590859639062L232.05666542053223,123.62459733200266L247.52710978190103,126.08905950737609" fill="none"></path></g><g><path style="fill: none;" stroke="rgb(0, 153, 136)" stroke-width="2px" d="M30.94088872273763,16.59063219274646L46.411333084106445,51.283939724374505L61.88177744547526,72.4431439306174L77.35222180684408,94.54931823833863L92.82266616821289,114.45353963333548L108.29311052958171,130.3953178184459L123.76355489095052,140.7957765115941L139.23399925231934,147.63458665853906L154.70444361368817,152.22501087442168L170.17488797505698,154.8178199017425L185.64533233642578,154.65087903976539L201.1157766977946,156.52584781196296L216.58622105916342,158.13544146425744L232.05666542053223,159.01401847294488L247.52710978190103,159.85239506935662" fill="none"></path></g><g><path style="fill: none;" stroke="rgb(255, 112, 67)" stroke-width="2px" d="M30.94088872273763,37.19003600132559L46.411333084106445,40.059265180550796L61.88177744547526,50.48345257105213L77.35222180684408,70.42364604204205L92.82266616821289,90.03151571161143L108.29311052958171,106.68452027226226L123.76355489095052,112.56868256001137L139.23399925231934,119.99360622416938L154.70444361368817,126.14027839416882L170.17488797505698,123.86742233180352L185.64533233642578,125.47704569737188L201.1157766977946,129.41748952196122L216.58622105916342,132.92488102002736L232.05666542053223,133.29013316768817L247.52710978190103,133.7789519749883" fill="none"></path></g><g><path style="fill: none;" stroke="rgb(187, 187, 187)" stroke-width="2px" d="M30.94088872273763,17.903742690082865L46.411333084106445,52.18447504013328L61.88177744547526,73.41171891270582L77.35222180684408,95.86235548717492L92.82266616821289,117.54757115964198L108.29311052958171,132.65497264200366L123.76355489095052,142.3351455037587L139.23399925231934,148.7540211094657L154.70444361368817,152.51504660805065L170.17488797505698,153.67381485954616L185.64533233642578,155.78581378765983L201.1157766977946,157.42040504993423L216.58622105916342,158.18973774779283L232.05666542053223,159.26178349126735L247.52710978190103,159.46316194415846" fill="none"></path></g></g></g></g><g opacity="0.2"><g><g><g><path style="fill: none;" stroke="rgb(255, 112, 67)" stroke-width="2px" d="M30.94088872273763,40.193100032530175L46.411333084106445,39.13446372487277L61.88177744547526,64.5200621280488L77.35222180684408,103.60631959549819L92.82266616821289,108.94020534154335L108.29311052958171,114.70938844114396L123.76355489095052,122.92254247126894L139.23399925231934,124.75694867384614L154.70444361368817,118.3027385848565L170.17488797505698,134.61116833734485L185.64533233642578,127.34849334132143L201.1157766977946,113.04355968246216L216.58622105916342,133.7539591033734L232.05666542053223,116.82932489814297L247.52710978190103,126.64307448922222" fill="none"></path></g><g><path style="fill: none;" stroke="rgb(187, 187, 187)" stroke-width="2px" d="M30.94088872273763,14.319749124624265L46.411333084106445,74.4609449992419L61.88177744547526,99.99373501282545L77.35222180684408,132.71088837809452L92.82266616821289,152.14129861680578L108.29311052958171,155.37384344248449L123.76355489095052,153.088853167997L139.23399925231934,158.70254941884434L154.70444361368817,158.94524063715986L170.17488797505698,159.68405828790426L185.64533233642578,158.93914511136572L201.1157766977946,160.27453297875698L216.58622105916342,159.44720664790762L232.05666542053223,160.71228737285432L247.52710978190103,160.07677531385866" fill="none"></path></g><g><path style="fill: none;" stroke="rgb(0, 153, 136)" stroke-width="2px" d="M30.94088872273763,28.071869369294298L46.411333084106445,43.426668095903885L61.88177744547526,56.532530629162544L77.35222180684408,78.1780511312481L92.82266616821289,98.87066289288666L108.29311052958171,116.9277765992607L123.76355489095052,118.2590789706527L139.23399925231934,121.55583265195186L154.70444361368817,122.79058732847137L170.17488797505698,110.20856064799649L185.64533233642578,106.81169422996884L201.1157766977946,126.7876177197132L216.58622105916342,104.21928149468107L232.05666542053223,135.57169972924473L247.52710978190103,125.12150623156575" fill="none"></path></g><g><path style="fill: none;" stroke="rgb(238, 51, 119)" stroke-width="2px" d="M30.94088872273763,8.621460438536031L46.411333084106445,69.19690226650876L61.88177744547526,92.23835091112744L77.35222180684408,123.15966855764142L92.82266616821289,142.05832210088272L108.29311052958171,152.04363877907429L123.76355489095052,155.3493619422301L139.23399925231934,157.32135413206046L154.70444361368817,158.60656028032832L170.17488797505698,158.75167393960447L185.64533233642578,159.61833473125978L201.1157766977946,154.82568181153482L216.58622105916342,159.85814757586493L232.05666542053223,157.35259629022107L247.52710978190103,160.64798436611292" fill="none"></path></g><g><path style="fill: none;" stroke="rgb(51, 187, 238)" stroke-width="2px" d="M30.94088872273763,35.036830237985505L46.411333084106445,42.41786285656778L61.88177744547526,64.99781307793118L77.35222180684408,110.48008695857267L92.82266616821289,119.79301443360752L108.29311052958171,126.48119861719238L123.76355489095052,122.99947580946177L139.23399925231934,118.85563814317979L154.70444361368817,123.89050213811406L170.17488797505698,130.26906663327395L185.64533233642578,127.66280236299312L201.1157766977946,129.14741478713526L216.58622105916342,132.83991020268599L232.05666542053223,127.48219566386379L247.52710978190103,134.33176536056152" fill="none"></path></g><g><path style="fill: none;" stroke="rgb(204, 51, 17)" stroke-width="2px" d="M30.94088872273763,14.15694996418314L46.411333084106445,73.38570717077322L61.88177744547526,97.53299027322169L77.35222180684408,133.95827973643435L92.82266616821289,149.74336399505592L108.29311052958171,154.48604199679983L123.76355489095052,157.4897868979871L139.23399925231934,158.3019615248456L154.70444361368817,156.94501581180134L170.17488797505698,159.75886425252986L185.64533233642578,159.7117086222185L201.1157766977946,159.82973022743388L216.58622105916342,159.22331776736698L232.05666542053223,160.4179430825614L247.52710978190103,160.50281603844397" fill="none"></path></g><g><path style="fill: none;" stroke="rgb(0, 119, 187)" stroke-width="2px" d="M30.94088872273763,37.270004263626284L46.411333084106445,47.03313865388187L61.88177744547526,67.23145537424946L77.35222180684408,101.20164806069955L92.82266616821289,102.22022513719227L108.29311052958171,119.60135919707821L123.76355489095052,128.78567127112848L139.23399925231934,123.67325104964738L154.70444361368817,121.46870338240396L170.17488797505698,126.8439692363361L185.64533233642578,124.72545967960907L201.1157766977946,119.33666698780459L216.58622105916342,119.37922219003322L232.05666542053223,103.12014860871683L247.52710978190103,132.65657339715392" fill="none"></path></g><g><path style="fill: none;" stroke="rgb(255, 112, 67)" stroke-width="2px" d="M30.94088872273763,16.67917952727057L46.411333084106445,73.79647774318333L61.88177744547526,105.33306771873232L77.35222180684408,140.39941800528544L92.82266616821289,152.44479986288812L108.29311052958171,156.33799785786903L123.76355489095052,157.66108450857746L139.23399925231934,158.1661956085276L154.70444361368817,157.84244607329185L170.17488797505698,159.55117323022355L185.64533233642578,159.8393554539008L201.1157766977946,159.89625199783347L216.58622105916342,160.4077736570937L232.05666542053223,160.95104067222073L247.52710978190103,160.1817979901259" fill="none"></path></g><g><path style="fill: none;" stroke="rgb(187, 187, 187)" stroke-width="2px" d="M30.94088872273763,37.617735000491656L46.411333084106445,46.76687817960347L61.88177744547526,58.3109078034136L77.35222180684408,65.84465850992733L92.82266616821289,106.52039452738858L108.29311052958171,108.8826522246914L123.76355489095052,114.83033480537269L139.23399925231934,122.6608277566805L154.70444361368817,122.18738401350143L170.17488797505698,122.92537860122127L185.64533233642578,116.64342585682844L201.1157766977946,129.56171947786603L216.58622105916342,132.1359778891054L232.05666542053223,119.66780503915447L247.52710978190103,129.78285588766147" fill="none"></path></g><g><path style="fill: none;" stroke="rgb(0, 153, 136)" stroke-width="2px" d="M30.94088872273763,16.59063219274646L46.411333084106445,72.09992424335132L61.88177744547526,92.75597996861056L77.35222180684408,120.54617922421882L92.82266616821289,140.44049108664336L108.29311052958171,152.44853608860024L123.76355489095052,155.66859885013517L139.23399925231934,157.60563750536224L154.70444361368817,158.99499494884887L170.17488797505698,158.6678391309786L185.64533233642578,154.401981888131L201.1157766977946,159.32809747299964L216.58622105916342,160.54457634015347L232.05666542053223,160.3301627621541L247.52710978190103,161.1089744837566" fill="none"></path></g><g><path style="fill: none;" stroke="rgb(255, 112, 67)" stroke-width="2px" d="M30.94088872273763,37.19003600132559L46.411333084106445,41.78080268808592L61.88177744547526,60.49067246593343L77.35222180684408,93.87331356392619L92.82266616821289,115.63155035220126L108.29311052958171,129.72162066128422L123.76355489095052,120.98312877808921L139.23399925231934,130.81921620577896L154.70444361368817,135.20542591531566L170.17488797505698,120.49249596692799L185.64533233642578,127.87688158026701L201.1157766977946,135.30671153756177L216.58622105916342,138.17451602533896L232.05666542053223,133.83729582219846L247.52710978190103,134.51160559778006" fill="none"></path></g><g><path style="fill: none;" stroke="rgb(187, 187, 187)" stroke-width="2px" d="M30.94088872273763,17.903742690082865L46.411333084106445,72.75291445016354L61.88177744547526,93.78987303037545L77.35222180684408,122.26430409875056L92.82266616821289,145.859788741615L108.29311052958171,153.55394755664352L123.76355489095052,156.1779475788342L139.23399925231934,158.11280336379227L154.70444361368817,158.06182867687065L170.17488797505698,155.39445066552986L185.64533233642578,158.93465650499547L201.1157766977946,159.86339656988008L216.58622105916342,159.34122478983994L232.05666542053223,160.8677518572651L247.52710978190103,159.76499291068325" fill="none"></path></g></g></g></g></g></g><g transform="translate(51, 177)" clip-path="url(#clip_1)"><clipPath id="clip_1"><rect width="278" height="22"></rect></clipPath><g><g><line x1="0" y1="0" x2="0" y2="5" style="visibility: inherit;" fill="rgb(0, 0, 0)" stroke="rgb(204, 204, 204)" stroke-width="1px"></line><line x1="30.94088872273763" y1="0" x2="30.94088872273763" y2="5" style="visibility: inherit;" fill="rgb(0, 0, 0)" stroke="rgb(204, 204, 204)" stroke-width="1px"></line><line x1="61.88177744547526" y1="0" x2="61.88177744547526" y2="5" style="visibility: inherit;" fill="rgb(0, 0, 0)" stroke="rgb(204, 204, 204)" stroke-width="1px"></line><line x1="92.82266616821289" y1="0" x2="92.82266616821289" y2="5" style="visibility: inherit;" fill="rgb(0, 0, 0)" stroke="rgb(204, 204, 204)" stroke-width="1px"></line><line x1="123.76355489095052" y1="0" x2="123.76355489095052" y2="5" style="visibility: inherit;" fill="rgb(0, 0, 0)" stroke="rgb(204, 204, 204)" stroke-width="1px"></line><line x1="154.70444361368817" y1="0" x2="154.70444361368817" y2="5" style="visibility: inherit;" fill="rgb(0, 0, 0)" stroke="rgb(204, 204, 204)" stroke-width="1px"></line><line x1="185.64533233642578" y1="0" x2="185.64533233642578" y2="5" style="visibility: inherit;" fill="rgb(0, 0, 0)" stroke="rgb(204, 204, 204)" stroke-width="1px"></line><line x1="216.58622105916342" y1="0" x2="216.58622105916342" y2="5" style="visibility: inherit;" fill="rgb(0, 0, 0)" stroke="rgb(204, 204, 204)" stroke-width="1px"></line><line x1="247.52710978190103" y1="0" x2="247.52710978190103" y2="5" style="visibility: inherit;" fill="rgb(0, 0, 0)" stroke="rgb(204, 204, 204)" stroke-width="1px"></line><line x1="278.4679985046387" y1="0" x2="278.4679985046387" y2="5" style="visibility: inherit;" fill="rgb(0, 0, 0)" stroke="rgb(204, 204, 204)" stroke-width="1px"></line></g><g transform="translate(0, 8)"><text style="text-anchor: middle; visibility: hidden; font-family: Roboto, sans-serif; font-size: 12px; font-weight: 200;" x="0" y="0" dx="0em" dy="0.95em" fill="rgb(50, 49, 63)" stroke="none" stroke-width="1px">-2</text><text style="text-anchor: middle; visibility: inherit; font-family: Roboto, sans-serif; font-size: 12px; font-weight: 200;" x="30.94088872273763" y="0" dx="0em" dy="0.95em" fill="rgb(50, 49, 63)" stroke="none" stroke-width="1px">0</text><text style="text-anchor: middle; visibility: inherit; font-family: Roboto, sans-serif; font-size: 12px; font-weight: 200;" x="61.88177744547526" y="0" dx="0em" dy="0.95em" fill="rgb(50, 49, 63)" stroke="none" stroke-width="1px">2</text><text style="text-anchor: middle; visibility: inherit; font-family: Roboto, sans-serif; font-size: 12px; font-weight: 200;" x="92.82266616821289" y="0" dx="0em" dy="0.95em" fill="rgb(50, 49, 63)" stroke="none" stroke-width="1px">4</text><text style="text-anchor: middle; visibility: inherit; font-family: Roboto, sans-serif; font-size: 12px; font-weight: 200;" x="123.76355489095052" y="0" dx="0em" dy="0.95em" fill="rgb(50, 49, 63)" stroke="none" stroke-width="1px">6</text><text style="text-anchor: middle; visibility: inherit; font-family: Roboto, sans-serif; font-size: 12px; font-weight: 200;" x="154.70444361368817" y="0" dx="0em" dy="0.95em" fill="rgb(50, 49, 63)" stroke="none" stroke-width="1px">8</text><text style="text-anchor: middle; visibility: inherit; font-family: Roboto, sans-serif; font-size: 12px; font-weight: 200;" x="185.64533233642578" y="0" dx="0em" dy="0.95em" fill="rgb(50, 49, 63)" stroke="none" stroke-width="1px">10</text><text style="text-anchor: middle; visibility: inherit; font-family: Roboto, sans-serif; font-size: 12px; font-weight: 200;" x="216.58622105916342" y="0" dx="0em" dy="0.95em" fill="rgb(50, 49, 63)" stroke="none" stroke-width="1px">12</text><text style="text-anchor: middle; visibility: inherit; font-family: Roboto, sans-serif; font-size: 12px; font-weight: 200;" x="247.52710978190103" y="0" dx="0em" dy="0.95em" fill="rgb(50, 49, 63)" stroke="none" stroke-width="1px">14</text><text style="text-anchor: middle; visibility: hidden; font-family: Roboto, sans-serif; font-size: 12px; font-weight: 200;" x="278.4679985046387" y="0" dx="0em" dy="0.95em" fill="rgb(50, 49, 63)" stroke="none" stroke-width="1px">16</text></g><line x1="0" y1="0" x2="278.4679985046387" y2="0" fill="rgb(0, 0, 0)" stroke="rgb(204, 204, 204)" stroke-width="1px"></line></g></g></g></g></svg>